<svg xmlns="http://www.w3.org/2000/svg" enable-background="new 0 0 16 16" viewBox="0 0 16 16" id="chat-typing"><g display="none"><path fill="none" stroke="#000" stroke-linecap="round" stroke-linejoin="round" stroke-miterlimit="10" d="M4.5,10.5v4l4.7-4h5.3c0.6,0,1-0.4,1-1v-8c0-0.6-0.4-1-1-1h-13c-0.6,0-1,0.4-1,1v8c0,0.6,0.4,1,1,1h1"></path><circle cx="3.5" cy="5.5" r="1" fill="none" stroke="#000" stroke-linecap="round" stroke-linejoin="round" stroke-miterlimit="10"></circle><circle cx="8" cy="5.5" r="1" fill="none" stroke="#000" stroke-linecap="round" stroke-linejoin="round" stroke-miterlimit="10"></circle><circle cx="12.5" cy="5.5" r="1" fill="none" stroke="#000" stroke-linecap="round" stroke-linejoin="round" stroke-miterlimit="10"></circle></g><g display="none"><path d="M14.5,0h-13C0.7,0,0,0.7,0,1.5v8C0,10.3,0.7,11,1.5,11h1C2.8,11,3,10.8,3,10.5S2.8,10,2.5,10h-1C1.2,10,1,9.8,1,9.5v-8
			C1,1.2,1.2,1,1.5,1h13C14.8,1,15,1.2,15,1.5v8c0,0.3-0.2,0.5-0.5,0.5H9.2c-0.1,0-0.2,0-0.3,0.1L5,13.4v-2.9C5,10.2,4.8,10,4.5,10
			S4,10.2,4,10.5v4c0,0.2,0.1,0.4,0.3,0.5c0.1,0,0.1,0,0.2,0c0.1,0,0.2,0,0.3-0.1L9.4,11h5.1c0.8,0,1.5-0.7,1.5-1.5v-8
			C16,0.7,15.3,0,14.5,0z"></path><path d="M5 5.5C5 4.7 4.3 4 3.5 4S2 4.7 2 5.5 2.7 7 3.5 7 5 6.3 5 5.5zM3.5 6C3.2 6 3 5.8 3 5.5S3.2 5 3.5 5 4 5.2 4 5.5 3.8 6 3.5 6zM9.5 5.5C9.5 4.7 8.8 4 8 4S6.5 4.7 6.5 5.5 7.2 7 8 7 9.5 6.3 9.5 5.5zM7.5 5.5C7.5 5.2 7.7 5 8 5s.5.2.5.5S8.3 6 8 6 7.5 5.8 7.5 5.5zM14 5.5C14 4.7 13.3 4 12.5 4S11 4.7 11 5.5 11.7 7 12.5 7 14 6.3 14 5.5zM12 5.5C12 5.2 12.2 5 12.5 5S13 5.2 13 5.5 12.8 6 12.5 6 12 5.8 12 5.5z"></path></g><g display="none"><path fill="#54a0ff" d="M13.5,2h-11c-1.1,0-2,0.9-2,2v5.5c0,0.6,0.4,1,1,1h3v4l4.7-4h5.3c0.6,0,1-0.4,1-1V4C15.5,2.9,14.6,2,13.5,2z"></path><circle cx="12.5" cy="5.5" r="1" fill="#f2f2f3"></circle><circle cx="8" cy="5.5" r="1" fill="#f2f2f3"></circle><circle cx="3.5" cy="5.5" r="1" fill="#f2f2f3"></circle><path fill="#3e3643" d="M14.5,0h-13C0.7,0,0,0.7,0,1.5v8C0,10.3,0.7,11,1.5,11h1C2.8,11,3,10.8,3,10.5S2.8,10,2.5,10h-1
			C1.2,10,1,9.8,1,9.5v-8C1,1.2,1.2,1,1.5,1h13C14.8,1,15,1.2,15,1.5v8c0,0.3-0.2,0.5-0.5,0.5H9.2c-0.1,0-0.2,0-0.3,0.1L5,13.4v-2.9
			C5,10.2,4.8,10,4.5,10S4,10.2,4,10.5v4c0,0.2,0.1,0.4,0.3,0.5c0.1,0,0.1,0,0.2,0c0.1,0,0.2,0,0.3-0.1L9.4,11h5.1
			c0.8,0,1.5-0.7,1.5-1.5v-8C16,0.7,15.3,0,14.5,0z"></path><path fill="#3e3643" d="M5 5.5C5 4.7 4.3 4 3.5 4S2 4.7 2 5.5 2.7 7 3.5 7 5 6.3 5 5.5zM3.5 6C3.2 6 3 5.8 3 5.5S3.2 5 3.5 5 4 5.2 4 5.5 3.8 6 3.5 6zM9.5 5.5C9.5 4.7 8.8 4 8 4S6.5 4.7 6.5 5.5 7.2 7 8 7 9.5 6.3 9.5 5.5zM7.5 5.5C7.5 5.2 7.7 5 8 5s.5.2.5.5S8.3 6 8 6 7.5 5.8 7.5 5.5zM14 5.5C14 4.7 13.3 4 12.5 4S11 4.7 11 5.5 11.7 7 12.5 7 14 6.3 14 5.5zM12 5.5C12 5.2 12.2 5 12.5 5S13 5.2 13 5.5 12.8 6 12.5 6 12 5.8 12 5.5z"></path></g><path fill="#4fc6f5" d="M4.5,15c-0.1,0-0.1,0-0.2,0C4.1,14.9,4,14.7,4,14.5V11H1.5C0.7,11,0,10.3,0,9.5v-8C0,0.7,0.7,0,1.5,0h13
				C15.3,0,16,0.7,16,1.5v8c0,0.8-0.7,1.5-1.5,1.5H9.4l-4.6,3.9C4.7,15,4.6,15,4.5,15z"></path><path fill="#cfd3d4" d="M3.5 7C2.7 7 2 6.3 2 5.5S2.7 4 3.5 4 5 4.7 5 5.5 4.3 7 3.5 7zM8 7C7.2 7 6.5 6.3 6.5 5.5S7.2 4 8 4s1.5.7 1.5 1.5S8.8 7 8 7zM12.5 7C11.7 7 11 6.3 11 5.5S11.7 4 12.5 4 14 4.7 14 5.5 13.3 7 12.5 7z"></path><path fill="#3bb3e3" d="M14.5,0h-2.1c1.2,0.7,2.1,2,2.1,3.5v4c0,1.5-0.9,2.8-2.1,3.5h2.1c0.8,0,1.5-0.7,1.5-1.5v-8
			C16,0.7,15.3,0,14.5,0z"></path></svg>